<?xml version="1.0" encoding="utf-8"?>
<!-- Generator: Adobe Illustrator 21.0.2, SVG Export Plug-In . SVG Version: 6.00 Build 0)  -->
<svg version="1.1" id="Layer_1" xmlns="http://www.w3.org/2000/svg" xmlns:xlink="http://www.w3.org/1999/xlink" x="0px" y="0px"
	 width="1024px" height="1024px" viewBox="0 0 1024 1024" enable-background="new 0 0 1024 1024" xml:space="preserve">
<g id="Option3_2_">
	<defs>
		<path id="SVGID_1_" d="M385.5,911.7L5,531.2l173-173l207.6,207.6L847,104.3L950.7,208L385.6,773.2L143.5,531.1l10.2-10.2
			c5.1-5.1,12.6-12.6,18.6-18.6l5.7-5.7l207.6,207.6L881.7,208L847,173.3L385.5,634.8L177.9,427.2L74.1,531.1l311.4,311.6
			l600.1-599.8l5.7,5.7c7.1,7.1,19.8,19.9,23,23.1l5.7,5.7L385.5,911.7z"/>
	</defs>
	<clipPath id="SVGID_2_">
		<use xlink:href="#SVGID_1_"  overflow="visible"/>
	</clipPath>
	<rect x="-11" y="342" clip-path="url(#SVGID_2_)" fill="#E32C2B" width="189" height="369.6"/>
	<rect x="178" y="342" clip-path="url(#SVGID_2_)" fill="#FF8208" width="207.5" height="597.2"/>
	<rect x="385.5" y="251.6" clip-path="url(#SVGID_2_)" fill="#2B7B48" width="207.5" height="687.6"/>
	<rect x="593" y="50.4" clip-path="url(#SVGID_2_)" fill="#3759A3" width="435.5" height="801.4"/>
</g>
</svg>
